<?xml version="1.0" standalone="no"?>
<!DOCTYPE svg PUBLIC "-//W3C//DTD SVG 20010904//EN"
 "http://www.w3.org/TR/2001/REC-SVG-20010904/DTD/svg10.dtd">
<svg version="1.0" xmlns="http://www.w3.org/2000/svg"
 width="360.000000pt" height="360.000000pt" viewBox="0 0 360.000000 360.000000"
 preserveAspectRatio="xMidYMid meet">

<g transform="translate(0.000000,360.000000) scale(0.100000,-0.100000)"
fill="#000000" stroke="none">
<path d="M1675 2865 l-25 -24 0 -261 0 -260 -270 0 -271 0 -24 -25 c-23 -22
-25 -32 -25 -118 0 -78 3 -99 19 -118 l19 -24 276 -3 275 -3 3 -265 c4 -323
-6 -304 150 -304 92 0 101 2 123 25 l25 24 0 261 0 260 270 0 271 0 24 25 c23
22 25 32 25 120 0 88 -2 98 -25 120 l-24 25 -271 0 -270 0 0 260 0 261 -25 24
c-22 23 -31 25 -125 25 -94 0 -103 -2 -125 -25z"/>
<path d="M861 1866 c-32 -51 -30 -121 3 -170 38 -57 34 -72 -11 -41 -39 26
-73 33 -73 15 0 -43 91 -135 144 -146 21 -4 42 -21 64 -52 l34 -45 -30 6
c-129 26 -164 17 -121 -30 44 -48 123 -66 184 -43 23 9 33 4 88 -41 68 -57 78
-70 48 -62 -31 8 -121 -15 -170 -44 -42 -24 -43 -27 -25 -40 14 -11 42 -14
109 -11 75 3 99 8 138 30 l47 27 73 -33 c39 -18 81 -37 92 -41 16 -6 7 -11
-38 -20 -77 -16 -133 -41 -184 -83 -62 -49 -57 -56 36 -49 103 8 177 36 217
83 l32 37 57 -28 c31 -16 58 -32 61 -36 2 -4 -27 -9 -64 -11 -37 -3 -80 -10
-97 -17 l-30 -13 24 -19 c19 -15 39 -19 109 -19 47 0 100 5 119 12 29 10 36 9
60 -9 l28 -20 28 20 c24 18 31 20 60 9 18 -7 72 -12 119 -12 70 0 90 4 109 19
l24 19 -30 13 c-16 6 -65 15 -107 18 -42 3 -79 9 -82 12 -3 3 0 19 6 37 9 24
9 48 -1 109 -14 86 -23 102 -45 84 -21 -18 -36 -99 -36 -195 0 -77 -2 -84 -24
-95 -19 -10 -27 -10 -43 0 -18 11 -21 26 -25 124 -5 113 -21 170 -47 170 -31
0 -51 -163 -27 -218 7 -14 -3 -11 -45 14 -30 17 -64 35 -77 40 -17 7 -22 14
-17 27 20 51 27 135 15 198 -12 71 -34 124 -51 124 -18 0 -42 -73 -43 -130 0
-56 19 -144 37 -168 5 -7 8 -15 5 -18 -9 -8 -188 78 -188 90 0 6 7 29 15 51
29 81 11 261 -30 295 -13 10 -17 7 -30 -23 -27 -65 -40 -170 -29 -236 l10 -60
-26 16 c-14 8 -47 34 -73 56 l-46 42 24 70 c25 71 35 205 16 205 -5 0 -23 -17
-40 -37 -34 -41 -54 -116 -44 -165 l6 -33 -22 19 c-12 11 -30 34 -41 51 -19
31 -19 32 1 85 23 61 38 190 22 190 -15 0 -65 -79 -78 -125 l-12 -39 -13 38
c-8 25 -10 59 -6 97 7 62 -2 159 -14 159 -5 0 -18 -15 -29 -34z m29 -83 c0
-41 -3 -54 -10 -43 -11 17 -13 61 -4 84 11 28 14 18 14 -41z m200 -230 c-10
-32 -20 -67 -23 -78 -4 -11 -5 3 -3 32 2 43 26 103 40 103 2 0 -4 -26 -14 -57z
m157 -205 c-2 -24 -4 -5 -4 42 0 47 2 66 4 43 2 -24 2 -62 0 -85z m-252 66
l50 -13 -54 5 c-55 5 -109 24 -66 23 11 -1 43 -7 70 -15z m488 -109 c7 -109
-8 -114 -19 -7 -6 52 1 122 10 111 2 -2 6 -49 9 -104z m-288 -70 c-27 -11
-115 -21 -115 -14 0 4 10 10 23 12 27 5 106 7 92 2z m495 -87 c0 -64 -3 -88
-10 -78 -15 23 -10 170 6 170 2 0 4 -42 4 -92z m209 -8 c1 -48 -12 -94 -21
-80 -2 3 -1 46 1 95 4 97 18 86 20 -15z m-481 -35 c-6 -6 -137 -55 -146 -55
-14 0 11 14 65 36 54 22 93 31 81 19z m231 -89 c-10 -9 -149 -14 -144 -5 4 5
38 9 77 9 39 0 69 -2 67 -4z m416 -5 c5 -9 -134 -4 -144 5 -2 2 28 4 67 4 39
0 73 -4 77 -9z"/>
<path d="M2666 1846 c-4 -30 -4 -80 -1 -113 5 -41 3 -68 -7 -93 l-15 -35 -8
34 c-9 41 -62 131 -77 131 -18 0 -3 -140 20 -193 l22 -49 -30 -43 c-17 -24
-34 -46 -39 -49 -4 -3 -8 21 -8 53 -1 60 -19 108 -56 149 -34 37 -40 27 -35
-60 5 -73 14 -113 42 -179 6 -13 -11 -31 -65 -73 -39 -31 -73 -55 -74 -54 -2
2 2 27 8 57 11 60 -2 173 -29 237 -12 29 -17 34 -29 24 -41 -34 -59 -215 -30
-295 8 -22 15 -45 15 -51 0 -10 -179 -98 -186 -91 -2 2 6 28 17 58 26 67 29
169 6 222 -9 20 -21 37 -26 37 -17 0 -39 -53 -52 -124 -12 -63 -5 -144 16
-197 5 -12 -9 -24 -59 -50 -36 -19 -66 -37 -66 -41 0 -13 12 -8 74 26 l59 34
21 -31 c27 -39 66 -62 141 -81 66 -18 165 -21 165 -6 0 13 -98 86 -135 100
-16 7 -57 18 -90 25 -46 10 -55 14 -40 20 11 4 53 23 92 41 l73 33 47 -27 c39
-22 63 -27 138 -30 67 -3 95 0 109 10 17 14 16 16 -26 41 -53 31 -128 51 -163
45 -14 -3 -28 -1 -31 3 -3 5 -1 9 5 9 5 0 37 22 69 49 57 48 61 49 95 39 53
-16 122 -2 162 34 53 45 47 62 -17 55 -29 -3 -69 -9 -88 -13 l-35 -7 21 24
c12 13 26 34 32 45 6 12 24 24 39 27 57 11 153 102 153 145 0 20 -32 14 -72
-13 -20 -14 -39 -25 -42 -25 -9 0 7 34 31 66 31 41 32 122 2 170 -11 19 -24
34 -29 34 -4 0 -11 -24 -14 -54z m26 -93 c-9 -25 -10 -21 -10 32 0 55 1 57 10
28 7 -21 7 -40 0 -60z m-191 -202 c6 -20 9 -49 7 -64 -2 -20 -8 -8 -24 48 -14
53 -17 71 -7 64 7 -6 18 -28 24 -48z m-174 -203 c-2 -24 -4 -5 -4 42 0 47 2
66 4 43 2 -24 2 -62 0 -85z m327 72 c-30 -12 -120 -24 -112 -15 9 9 71 22 108
23 24 1 24 0 4 -8z m-545 -85 c0 -27 -7 -68 -15 -90 l-14 -40 5 49 c3 27 5 74
5 105 0 40 3 52 10 41 5 -8 9 -37 9 -65z m366 -110 l30 -14 -35 6 c-19 3 -51
9 -70 13 l-35 8 40 1 c22 0 54 -6 70 -14z m-212 -151 c15 -8 27 -17 27 -19 0
-6 -113 35 -124 46 -13 11 62 -10 97 -27z"/>
</g>
</svg>
